<svg width="64" height="64" viewBox="0 0 64 64" fill="none" xmlns="http://www.w3.org/2000/svg">
    <circle cx="32" cy="32" r="32" fill="#121212"/>
    
    <path d="M36.5 46C33.8333 46 31.375 45.4375 29.125 44.3125C26.9167 43.1458 25.0625 41.5208 23.5625 39.4375C22.1042 37.3125 21.375 34.8542 21.375 32.0625C21.375 29.2292 22.1042 26.75 23.5625 24.625C25.0625 22.5 26.9167 20.875 29.125 19.75C31.375 18.5833 33.8333 18 36.5 18C39.2917 18 41.7917 18.625 44 19.875C46.25 21.125 47.9792 22.9375 49.1875 25.3125L41.6875 28.9375C41.1875 27.6458 40.375 26.6458 39.25 25.9375C38.1667 25.1875 36.875 24.8125 35.375 24.8125C33.5 24.8125 32 25.4375 30.875 26.6875C29.7917 27.8958 29.25 29.6875 29.25 32.0625C29.25 34.3958 29.7917 36.1875 30.875 37.4375C32 38.6458 33.5 39.25 35.375 39.25C36.875 39.25 38.1667 38.875 39.25 38.125C40.375 37.375 41.1875 36.3333 41.6875 35L49.1875 38.625C47.9792 41.0833 46.25 42.9375 44 44.1875C41.7917 45.3958 39.2917 46 36.5 46Z" fill="#FAFAFA"/>
</svg>